<svg xmlns="http://www.w3.org/2000/svg" viewBox="0 0 488.76 127.25"><defs><style>.cls-1{fill:#255c9a;}.cls-2{fill:#e89554;}.cls-3{fill:#bd7035;}.cls-4{fill:#5a82a8;}</style></defs><g id="文字LOGO第二版"><path class="cls-1" d="M152.43,300.23v66h-37.7V347.36h18.85v-66h0A18.85,18.85,0,0,1,152.43,300.23Z" transform="translate(-114.73 -238.96)"/><rect class="cls-2" x="51.84" y="35.03" width="37.7" height="18.85"/><rect class="cls-2" x="89.54" y="53.88" width="18.85" height="73.37"/><polygon class="cls-3" points="89.54 35.03 108.4 53.88 89.54 53.88 89.54 35.03"/><polygon class="cls-1" points="89.54 18.85 89.54 0 108.41 18.87 89.54 18.85"/><polygon class="cls-3" points="108.41 108.39 127.27 108.39 108.4 127.25 108.41 108.39"/><path class="cls-4" d="M204.27,239H114.73v23.57a18.85,18.85,0,0,0,18.85,18.85h0V257.81h70.69Z" transform="translate(-114.73 -238.96)"/><rect class="cls-3" x="166.57" y="314.42" width="21.8" height="21.8" transform="translate(-292.79 -18.18) rotate(-45)"/><path class="cls-3" d="M486.42,291.66q4.21,25.88,5.91,49.88l-8.14,2.11q-2.34-26.92-5.82-49.65Z" transform="translate(-114.73 -238.96)"/><path class="cls-3" d="M551.19,314.89l2.61,1.51,0,1.41a29.52,29.52,0,0,0,6.72,4.23,40.86,40.86,0,0,0,7.25,2.51l-5.47,2.78a39.52,39.52,0,0,1-5-2.47,34.8,34.8,0,0,1-5.92-5q-2.52,2.17-5,4a44,44,0,0,1-6.41,3.48l-5.33-1.47a43.19,43.19,0,0,0,9.17-4.63A49.37,49.37,0,0,0,551.19,314.89Z" transform="translate(-114.73 -238.96)"/><path class="cls-3" d="M541.19,345.91v16.32h3.21v-1.62h13.79V362h3.21V345.91Zm17,11.48H544.4v-2.52h13.79Zm0-5.54H544.4v-2.72h13.79Z" transform="translate(-114.73 -238.96)"/><rect class="cls-3" x="430.02" y="86.2" width="12.82" height="3.22"/><path class="cls-3" d="M538.33,330.8v13.7L541.4,342v1.26h19.79v1.21l3.07-1.95V330.8Zm11.29,8.86h-2.23a28.83,28.83,0,0,0-1.32-4.83l-2.58.8a35.15,35.15,0,0,1,1.08,4H541.4v-5.23h8.22Zm11.57,0h-3.62l.8-1.71A1.13,1.13,0,0,0,559,337q0-.3-.45-.6l-2.16-1.61-1.78,4.83h-2.16v-5.23h8.78Z" transform="translate(-114.73 -238.96)"/><path class="cls-3" d="M581.43,349.53l-2.12,2.87c.35.54.73,1.11,1.15,1.72q-2.24,1-4.57,1.81v-7.71h8.51V332.31H573v24.48c-.56.16-1.14.32-1.75.45l.77,4.48c0,.47.15.71.38.71s.46-.25.67-.76q6.09-2.78,9.06-4.53c.41.84.85,1.79,1.32,2.87l2.3-3A45.84,45.84,0,0,0,581.43,349.53Zm-5.54-13.79h5.58v2.92h-5.58Zm0,6.14h5.58v2.92h-5.58Z" transform="translate(-114.73 -238.96)"/><path class="cls-3" d="M595.54,321v-2.92a2.11,2.11,0,0,0,.67-1.16c0-.4-.28-.62-.84-.65l-3-.41V321H585v3.27a21.79,21.79,0,0,1-4.77-5.79.19.19,0,0,1,0-.1c.61-.23.91-.47.91-.7a.87.87,0,0,0-.52-.76l-2.51-1.46a51.22,51.22,0,0,1-3.38,7.15,24,24,0,0,1-4.18,5.24L573,331c.84-1,1.59-2.05,2.27-3v1.51h7.24V327a19.06,19.06,0,0,0,1.29,1.56l1.15-1.76v4.38h2.93v-6.34h12.68v6.54h2.93V321Zm-19,5a6.12,6.12,0,0,0,.56-1c.6-1.11,1.21-2.32,1.81-3.63a33,33,0,0,0,2.86,4.64Z" transform="translate(-114.73 -238.96)"/><path class="cls-3" d="M591.08,346.21v-4h9.2V329.79H588.16v32h2.92V359.1h8.09v1.72h2.92V346.21Zm0-12.79h6.28v5.24h-6.28Zm8.09,21.86h-8.09V350h8.09Z" transform="translate(-114.73 -238.96)"/><path class="cls-4" d="M332.23,345.06q-.81,5.38-1.79,7.14a2.37,2.37,0,0,1-2.24,1.52,29.21,29.21,0,0,1-9.31-1.76,88.11,88.11,0,0,0,7.61-4.8l3.23-2.34-6-7.26a62,62,0,0,1-12.62,9.13,8.08,8.08,0,0,1-1.08.47,27.81,27.81,0,0,1-4.83-4.56,15.8,15.8,0,0,1-2.06-3.28l26.68-4.2,6-10-14.05,2.11,3.67-4.45a57.85,57.85,0,0,0-7.79-4.69h13.42v-37l-7.51-8h-14q1-2.46,1.88-5.39h23.71v-8.43h-53l7.29,8.43h13.65c-.6,1.72-1.28,3.51-2.06,5.39H286.32v45h27.83l-4,4.92a66.12,66.12,0,0,1,8.33,4.69L300,330.65l-1.48-10.49c0,.1-6.13.07-6.13.07a91.68,91.68,0,0,0,1.17,11.36l-5.66,1-5.53,9.93,13.42-2a36.07,36.07,0,0,0,1.44,3.63,45.22,45.22,0,0,0,4.56,6.67,43.45,43.45,0,0,1-5.91,1.88,93,93,0,0,1-14.05,2.92l3.58,7.85a118.88,118.88,0,0,0,23.45-6.56A35.67,35.67,0,0,0,315,360.4a33.31,33.31,0,0,0,13.7,3.39,7.13,7.13,0,0,0,5.9-3q2-2.36,3.76-9.61Zm-38.4-63.94h29.72v5.15H293.83Zm0,12.18h29.72v5.15H293.83Zm0,16.86v-4.68h29.72v4.68Z" transform="translate(-114.73 -238.96)"/><path class="cls-2" d="M349.5,262.38h77v9.84H375.09l-1.34,13.58,29.27.46,7.52,9.53-4.75,53.48q0,3.28,3.58,3.28h6.35q2,0,3.76-2.69,1.44-2.58,3.22-15.58l7.34,5q-1.34,12.53-4.11,17.91-2.78,5.16-7.7,5.16H404.45q-7.44,0-7.43-9.25l5.28-57.5H372.77l-5,49.06q13.33-2.22,26.13-5.5v9.49q-12.79,3.74-40.45,9.71c-.54,1.41-1.14,2.11-1.79,2.11s-1-.58-1.08-1.75l-2.23-11.36q5.71-.58,11.18-1.41l7.61-73.77H349.5Z" transform="translate(-114.73 -238.96)"/><path class="cls-3" d="M383.87,304.77q5.53,10.55,9.66,20.5l-6.71,5.27Q382.34,320,376.7,309.46Z" transform="translate(-114.73 -238.96)"/><path class="cls-3" d="M439.35,275.27h12.71V256.06l8.95,1.41a1.54,1.54,0,0,1,1.52,1.64c0,.86-.75,1.87-2.24,3v13.12h11.64v10.3H460.29v23.18q6.72-3.51,13.07-7.49v10.42l-13.07,7.61v31.5q0,7.38-3,10.89-2.41,3.52-12.44,3.52l-3.4-11h6.8q3.49,0,3.76-5.62V324.1l-10.65,5.38-3.13-10.65q7.07-2.7,13.78-6V285.57H439.35Z" transform="translate(-114.73 -238.96)"/><path class="cls-3" d="M506.83,291.66l8.68,1.4s-3.31,29.55-5.28,39.93q-1.8,8.08-4.3,16.28h16.83v10.31H472.28V349.27h24.44a132.16,132.16,0,0,0,5.19-18.15Q505.12,317.07,506.83,291.66Z" transform="translate(-114.73 -238.96)"/><path class="cls-3" d="M493.05,257l8.05.94c1.55.07,2.33.62,2.33,1.63,0,.63-.6,1.57-1.79,2.81V275.5H521v9.84H473.72V275.5h19.33Z" transform="translate(-114.73 -238.96)"/><polygon class="cls-1" points="143.31 33.26 143.31 100.94 150.83 91.34 150.83 81.5 150.83 43.1 158.7 43.1 166.22 43.1 166.22 33.26 143.31 33.26"/><polygon class="cls-4" points="158.7 81.5 150.83 81.5 150.83 91.34 166.22 91.34 166.22 43.1 158.7 43.1 158.7 81.5"/></g></svg>