<svg xmlns="http://www.w3.org/2000/svg" viewBox="0 0 229.63 229.61"><defs><style>.cls-1{fill:#255c9a;}.cls-2{fill:#e89554;}.cls-3{fill:#bd7035;}.cls-4{fill:#5a82a8;}</style></defs><g id="完稿1"><path class="cls-1" d="M401.36,283.55V402.6h-68v-34h34v-119h0A34,34,0,0,1,401.36,283.55Z" transform="translate(-333.33 -172.99)"/><rect class="cls-2" x="93.54" y="63.21" width="68.03" height="34.02"/><rect class="cls-2" x="161.57" y="97.23" width="34.02" height="132.38"/><polygon class="cls-3" points="161.57 63.21 195.59 97.23 161.57 97.23 161.57 63.21"/><polygon class="cls-1" points="161.56 34.02 161.56 0 195.6 34.04 161.56 34.02"/><polygon class="cls-3" points="195.61 195.57 229.63 195.57 195.59 229.61 195.61 195.57"/><path class="cls-4" d="M494.9,173H333.33v42.53a34,34,0,0,0,34,34h0V207H494.9Z" transform="translate(-333.33 -172.99)"/><rect class="cls-3" x="426.87" y="309.16" width="39.34" height="39.34" transform="translate(-435.05 239.07) rotate(-45)"/></g></svg>